<svg width="27" height="24" viewBox="0 0 27 24" fill="none" xmlns="http://www.w3.org/2000/svg">
<path d="M10.1213 22H16.4963C21.8088 22 23.9338 20 23.9338 15V9C23.9338 4 21.8088 2 16.4963 2H10.1213C4.80884 2 2.68384 4 2.68384 9V15C2.68384 20 4.80884 22 10.1213 22Z" stroke="#199A8E" stroke-width="2" stroke-linecap="round" stroke-linejoin="round"/>
<path d="M2.68384 12.7001L9.05884 12.6801C9.85571 12.6801 10.7482 13.2501 11.0457 13.9501L12.257 16.8301C12.5332 17.4801 12.9688 17.4801 13.2451 16.8301L15.6782 11.0201C15.912 10.4601 16.3476 10.4401 16.6451 10.9701L17.7501 12.9401C18.0795 13.5301 18.9295 14.0101 19.6307 14.0101H23.9445" stroke="#199A8E" stroke-width="2" stroke-linecap="round" stroke-linejoin="round"/>
</svg>
