<svg width="27" height="24" viewBox="0 0 27 24" fill="none" xmlns="http://www.w3.org/2000/svg">
<g clip-path="url(#clip0_73_690)">
<path d="M24.7405 4.38838C24.0613 2.39689 22.6134 0.93533 20.768 0.378362C17.3657 -0.648482 14.568 0.671799 13.5 1.30386C12.4318 0.671752 9.63405 -0.648482 6.23199 0.378362C4.38603 0.935471 2.93795 2.3976 2.25897 4.38983C1.36612 7.00958 1.94271 9.97728 3.80152 12.3283C4.60965 13.3506 5.15606 14.4776 5.4255 15.678C5.54518 16.2114 5.64922 16.7982 5.73469 17.4222C5.99133 19.2961 6.3693 20.8001 6.85818 21.8924C7.44378 23.201 8.19927 23.9076 9.10363 23.9927C9.15512 23.9975 9.20597 23.9999 9.25653 23.9999C10.1466 23.9999 10.8906 23.248 11.4693 21.7619C11.8972 20.6633 12.2344 19.1912 12.4191 17.6167C12.5223 16.7363 12.7637 16.0234 13.1171 15.5551C13.2436 15.3875 13.4271 15.3694 13.5 15.3694C13.573 15.3694 13.7564 15.3875 13.883 15.5552C14.2364 16.0234 14.4778 16.7363 14.581 17.6167C14.7656 19.1912 15.1029 20.6634 15.5308 21.762C16.1095 23.2481 16.8533 24 17.7435 24C17.794 24 17.845 23.9976 17.8964 23.9928C18.8008 23.9076 19.5563 23.201 20.1419 21.8925C20.6307 20.8002 21.0087 19.2961 21.2654 17.4222C21.3508 16.7981 21.4549 16.2114 21.5745 15.6784C21.8438 14.4789 22.391 13.3508 23.2009 12.3254C25.0581 9.97433 25.6337 7.00719 24.7405 4.38838ZM22.0049 11.4885C21.0657 12.6775 20.4303 13.9896 20.1163 15.3884C19.9884 15.9579 19.8777 16.5818 19.7872 17.2429C19.2648 21.0573 18.2913 22.5297 17.7575 22.5959C17.6454 22.5586 17.2619 22.2116 16.8496 21.0637C16.5002 20.0909 16.2207 18.8121 16.0624 17.4628C15.9296 16.3297 15.6051 15.4146 15.098 14.7428C14.7312 14.2568 14.1338 13.9666 13.5 13.9666C12.8662 13.9666 12.2688 14.2567 11.9019 14.7428C11.3948 15.4147 11.0704 16.3298 10.9375 17.4629C10.7793 18.8122 10.4998 20.091 10.1504 21.0637C9.73809 22.2117 9.35454 22.5586 9.24243 22.596C8.70862 22.5297 7.73514 21.0573 7.21274 17.243C7.1222 16.582 7.01148 15.958 6.88358 15.3882C6.56936 13.9882 5.93465 12.6771 4.99713 11.4911C3.42494 9.50244 2.93193 7.00794 3.67815 4.81836C4.20832 3.26272 5.30502 2.1313 6.68705 1.71421C8.14603 1.27381 9.65048 1.30203 11.1586 1.79797C12.3104 2.17681 13.0333 2.70083 13.0386 2.70477L13.4989 3.04344L13.9595 2.70608C13.9667 2.70083 14.6895 2.17681 15.8414 1.79797C17.3494 1.30199 18.8538 1.27381 20.3129 1.71421H20.3129C21.6945 2.13116 22.7911 3.26216 23.3214 4.81714C24.0678 7.00588 23.5757 9.49986 22.0049 11.4885Z" fill="#199A8E"/>
</g>
<defs>
<clipPath id="clip0_73_690">
<rect width="25.5" height="24" fill="white" transform="translate(0.75)"/>
</clipPath>
</defs>
</svg>
