<svg width="169" height="160" viewBox="0 0 169 160" fill="none" xmlns="http://www.w3.org/2000/svg">
<g filter="url(#filter0_d_14_2645)">
<rect x="59" y="42" width="51" height="42" rx="16" fill="white"/>
</g>
<g clip-path="url(#clip0_14_2645)">
<path d="M82.9815 64.4853C82.8506 63.3774 82.7155 62.2327 82.7155 61.1408C82.7155 59.1489 82.7155 53.8589 78.85 53.8589C74.5153 53.8589 71.7504 63.5958 71.7504 68.681C71.7445 69.4314 71.7793 73.2407 73.1061 74.4998C73.4461 74.8222 73.8617 74.9933 74.3088 74.9933C75.2471 74.9933 75.7444 74.6334 76.2704 74.2534C76.8441 73.8374 77.6312 73.2694 79.6524 72.7207C83.8204 71.5904 83.375 67.8155 82.9815 64.4853ZM79.1831 71.1833C76.8518 71.816 75.8794 72.5191 75.236 72.9848C74.789 73.3088 74.6624 73.3903 74.3342 73.3943C73.8609 73.1024 73.4342 70.8386 73.4512 68.6875C73.4512 62.8767 76.4786 55.4588 78.8508 55.4588C80.328 55.4588 81.0164 57.2643 81.0164 61.1416C81.0164 62.3216 81.1567 63.5118 81.2927 64.6622C81.7279 68.3435 81.8443 70.4617 79.1831 71.1833Z" fill="#199A8E"/>
<mask id="path-3-inside-1_14_2645" fill="white">
<path d="M97.2494 68.6874C97.2494 63.595 94.4846 53.8589 90.1491 53.8589C86.2852 53.8589 86.2852 59.1489 86.2852 61.1399C86.2852 62.2326 86.1501 63.3774 86.0192 64.4853C85.6257 67.8147 85.1803 71.5896 89.3468 72.7199C91.3671 73.2687 92.1541 73.8366 92.7295 74.2526C93.2573 74.6334 93.7545 74.9934 94.6929 74.9934C95.1391 74.9934 95.5538 74.823 95.8938 74.5006C97.2205 73.2415 97.2562 69.4322 97.2494 68.6874ZM94.6682 73.3935C94.3384 73.3895 94.2118 73.3063 93.7647 72.9839C93.1204 72.5184 92.1472 71.8152 89.8176 71.1824C87.1573 70.4609 87.2737 68.3434 87.7088 64.6621C87.8449 63.5118 87.9851 62.3215 87.9851 61.1408C87.9851 59.9713 88.0344 58.2714 88.4576 57.0211C88.9268 55.6372 89.6076 55.4596 90.1498 55.4596C92.522 55.4596 95.5503 62.8774 95.5503 68.6938C95.5691 70.8377 95.1424 73.0999 94.6682 73.3935Z"/>
</mask>
<path d="M97.2494 68.6874C97.2494 63.595 94.4846 53.8589 90.1491 53.8589C86.2852 53.8589 86.2852 59.1489 86.2852 61.1399C86.2852 62.2326 86.1501 63.3774 86.0192 64.4853C85.6257 67.8147 85.1803 71.5896 89.3468 72.7199C91.3671 73.2687 92.1541 73.8366 92.7295 74.2526C93.2573 74.6334 93.7545 74.9934 94.6929 74.9934C95.1391 74.9934 95.5538 74.823 95.8938 74.5006C97.2205 73.2415 97.2562 69.4322 97.2494 68.6874ZM94.6682 73.3935C94.3384 73.3895 94.2118 73.3063 93.7647 72.9839C93.1204 72.5184 92.1472 71.8152 89.8176 71.1824C87.1573 70.4609 87.2737 68.3434 87.7088 64.6621C87.8449 63.5118 87.9851 62.3215 87.9851 61.1408C87.9851 59.9713 88.0344 58.2714 88.4576 57.0211C88.9268 55.6372 89.6076 55.4596 90.1498 55.4596C92.522 55.4596 95.5503 62.8774 95.5503 68.6938C95.5691 70.8377 95.1424 73.0999 94.6682 73.3935Z" fill="#199A8E"/>
<path d="M97.2494 68.6874H95.2494V68.6965L95.2495 68.7056L97.2494 68.6874ZM86.0192 64.4853L88.0054 64.72L88.0054 64.7199L86.0192 64.4853ZM89.3468 72.7199L89.871 70.7898L89.8704 70.7897L89.3468 72.7199ZM92.7295 74.2526L91.5578 75.8734L91.5594 75.8746L92.7295 74.2526ZM95.8938 74.5006L97.2699 75.952L97.2706 75.9513L95.8938 74.5006ZM94.6682 73.3935L94.644 75.3934L95.226 75.4004L95.7209 75.094L94.6682 73.3935ZM93.7647 72.9839L92.5933 74.605L92.5949 74.6061L93.7647 72.9839ZM89.8176 71.1824L90.3418 69.2524L90.3411 69.2522L89.8176 71.1824ZM87.7088 64.6621L85.7227 64.4273L85.7227 64.4273L87.7088 64.6621ZM88.4576 57.0211L86.5635 56.3789L86.5632 56.3798L88.4576 57.0211ZM95.5503 68.6938H93.5503V68.7026L93.5504 68.7113L95.5503 68.6938ZM99.2494 68.6874C99.2494 65.8668 98.5019 61.9074 97.181 58.6182C96.5197 56.9715 95.666 55.3685 94.5922 54.1422C93.5272 52.9258 92.0393 51.8589 90.1491 51.8589V55.8589C90.4265 55.8589 90.9101 56.0089 91.5828 56.7772C92.2468 57.5356 92.8973 58.6849 93.4691 60.1088C94.6145 62.9608 95.2494 66.4156 95.2494 68.6874H99.2494ZM90.1491 51.8589C88.6722 51.8589 87.4457 52.3857 86.5228 53.281C85.6503 54.1273 85.1536 55.1986 84.8565 56.1652C84.2719 58.0672 84.2852 60.1835 84.2852 61.1399H88.2852C88.2852 60.1053 88.2986 58.5811 88.68 57.3404C88.8659 56.7355 89.0936 56.3599 89.3078 56.1521C89.4716 55.9933 89.694 55.8589 90.1491 55.8589V51.8589ZM84.2852 61.1399C84.2852 62.0941 84.1667 63.1195 84.033 64.2507L88.0054 64.7199C88.1336 63.6352 88.2852 62.3712 88.2852 61.1399H84.2852ZM84.0331 64.2505C83.8478 65.8182 83.5683 67.9775 84.0282 69.894C84.2719 70.9094 84.7347 71.9316 85.5655 72.8039C86.3981 73.678 87.4933 74.2894 88.8231 74.6501L89.8704 70.7897C89.117 70.5853 88.7055 70.3009 88.462 70.0452C88.2168 69.7878 88.0344 69.4463 87.9178 68.9605C87.6572 67.8746 87.7972 66.4818 88.0054 64.72L84.0331 64.2505ZM88.8225 74.65C89.7266 74.8956 90.299 75.1302 90.6801 75.3222C91.0526 75.5098 91.2871 75.6778 91.5578 75.8734L93.9013 72.6318C93.1794 72.1099 92.176 71.4159 89.871 70.7898L88.8225 74.65ZM91.5594 75.8746C92.1414 76.2944 93.0826 76.9934 94.6929 76.9934V72.9934C94.5026 72.9934 94.4223 72.9618 94.374 72.9402C94.2827 72.8993 94.1866 72.8377 93.8996 72.6306L91.5594 75.8746ZM94.6929 76.9934C95.6796 76.9934 96.5796 76.6065 97.2699 75.952L94.5178 73.0492C94.5162 73.0508 94.534 73.034 94.5738 73.0177C94.6146 73.0009 94.6575 72.9934 94.6929 72.9934V76.9934ZM97.2706 75.9513C97.9359 75.3199 98.3194 74.5014 98.5553 73.8227C98.8018 73.114 98.9537 72.3608 99.0511 71.6873C99.246 70.3391 99.2531 69.0854 99.2493 68.6692L95.2495 68.7056C95.2525 69.0342 95.2451 70.0575 95.0923 71.1149C95.0157 71.6443 94.9104 72.126 94.7773 72.509C94.6336 72.922 94.5151 73.0518 94.517 73.05L97.2706 75.9513ZM94.6923 71.3937C94.6923 71.3937 94.6926 71.3937 94.693 71.3937C94.6935 71.3937 94.6942 71.3937 94.6951 71.3937C94.6969 71.3938 94.6996 71.3939 94.7032 71.394C94.7104 71.3944 94.7213 71.395 94.7353 71.3963C94.7641 71.3989 94.8045 71.4041 94.8531 71.4141C94.9026 71.4242 94.953 71.4378 95.0027 71.4549C95.0519 71.4717 95.0926 71.4892 95.1235 71.5039C95.1791 71.5305 95.1988 71.5468 95.1565 71.5186C95.1126 71.4894 95.0504 71.4453 94.9345 71.3617L92.5949 74.6061C92.7695 74.7321 93.0721 74.9567 93.3973 75.1123C93.8497 75.3287 94.2655 75.3888 94.644 75.3934L94.6923 71.3937ZM94.9361 71.3629C94.1561 70.7992 92.9658 69.9651 90.3418 69.2524L89.2933 73.1125C91.3286 73.6653 92.0847 74.2375 92.5933 74.605L94.9361 71.3629ZM90.3411 69.2522C89.9165 69.137 89.7676 69.0116 89.721 68.9649C89.6833 68.9271 89.6111 68.842 89.5513 68.5827C89.3963 67.9107 89.4654 66.8398 89.695 64.8969L85.7227 64.4273C85.5172 66.1657 85.3105 67.9942 85.6536 69.4817C85.8428 70.3021 86.2131 71.1117 86.8882 71.7889C87.5543 72.4572 88.3885 72.8671 89.294 73.1127L90.3411 69.2522ZM89.695 64.897C89.8288 63.7658 89.9851 62.4587 89.9851 61.1408H85.9851C85.9851 62.1842 85.861 63.2578 85.7227 64.4273L89.695 64.897ZM89.9851 61.1408C89.9851 59.9455 90.0483 58.5597 90.352 57.6623L86.5632 56.3798C86.0205 57.9831 85.9851 59.997 85.9851 61.1408H89.9851ZM90.3517 57.6632C90.506 57.2081 90.6029 57.2288 90.4585 57.3345C90.3865 57.3873 90.3025 57.4247 90.2253 57.4448C90.1571 57.4624 90.1209 57.4596 90.1498 57.4596V53.4596C89.6445 53.4596 88.8609 53.5462 88.0941 54.1082C87.3565 54.6487 86.8784 55.4501 86.5635 56.3789L90.3517 57.6632ZM90.1498 57.4596C89.7496 57.4596 89.8616 57.2318 90.4214 57.9447C90.8841 58.5339 91.4016 59.4598 91.8879 60.6513C92.8598 63.0327 93.5503 66.0846 93.5503 68.6938H97.5503C97.5503 65.4867 96.7266 61.9214 95.5913 59.1398C95.024 57.7498 94.3397 56.4577 93.5673 55.4742C92.8922 54.6146 91.7361 53.4596 90.1498 53.4596V57.4596ZM93.5504 68.7113C93.5587 69.6598 93.467 70.6314 93.3285 71.368C93.2584 71.7411 93.1864 71.9986 93.1335 72.1413C93.1066 72.214 93.1019 72.2093 93.1323 72.1591C93.1433 72.1409 93.2837 71.8983 93.6154 71.693L95.7209 75.094C96.1711 74.8153 96.4286 74.4378 96.5537 74.2313C96.6981 73.9928 96.8044 73.7465 96.8839 73.5323C97.0438 73.1012 97.1662 72.6041 97.2597 72.107C97.4484 71.1031 97.5607 69.8717 97.5502 68.6763L93.5504 68.7113Z" fill="#199A8E" mask="url(#path-3-inside-1_14_2645)"/>
<mask id="path-5-inside-2_14_2645" fill="white">
<path d="M86.6158 60.8585C86.4161 60.8585 85.8101 60.8585 85.2959 59.585C85.1709 59.2747 84.8548 59.0691 84.502 59.0691C84.1493 59.0691 83.8323 59.2739 83.7074 59.5842C83.1923 60.8585 82.5863 60.8585 82.3874 60.8585C81.9182 60.8585 81.5375 61.2169 81.5375 61.6585C81.5375 62.1 81.9182 62.4584 82.3874 62.4584C83.0189 62.4584 83.8161 62.2616 84.5012 61.4881C85.1863 62.2616 85.9835 62.4584 86.6158 62.4584C87.0858 62.4584 87.4658 62.1001 87.4658 61.6585C87.4658 61.2168 87.0858 60.8585 86.6158 60.8585Z"/>
</mask>
<path d="M86.6158 60.8585C86.4161 60.8585 85.8101 60.8585 85.2959 59.585C85.1709 59.2747 84.8548 59.0691 84.502 59.0691C84.1493 59.0691 83.8323 59.2739 83.7074 59.5842C83.1923 60.8585 82.5863 60.8585 82.3874 60.8585C81.9182 60.8585 81.5375 61.2169 81.5375 61.6585C81.5375 62.1 81.9182 62.4584 82.3874 62.4584C83.0189 62.4584 83.8161 62.2616 84.5012 61.4881C85.1863 62.2616 85.9835 62.4584 86.6158 62.4584C87.0858 62.4584 87.4658 62.1001 87.4658 61.6585C87.4658 61.2168 87.0858 60.8585 86.6158 60.8585Z" fill="#199A8E"/>
<path d="M85.2959 59.585L83.4406 60.332L83.4414 60.3339L85.2959 59.585ZM83.7074 59.5842L85.5616 60.3337L85.5627 60.331L83.7074 59.5842ZM84.5012 61.4881L85.9984 60.1621L84.5011 58.4714L83.0039 60.1621L84.5012 61.4881ZM86.6158 58.8585C86.5873 58.8585 86.6903 58.856 86.8164 58.883C86.9498 58.9115 87.0745 58.9634 87.1769 59.0311C87.3792 59.1648 87.3113 59.2346 87.1504 58.8362L83.4414 60.3339C83.7947 61.209 84.2869 61.9155 84.9707 62.3676C85.7016 62.8509 86.38 62.8585 86.6158 62.8585V58.8585ZM87.1511 58.8381C86.7005 57.7187 85.6135 57.0691 84.502 57.0691V61.0691C84.096 61.0691 83.6414 60.8306 83.4406 60.332L87.1511 58.8381ZM84.502 57.0691C83.3964 57.0691 82.3046 57.7128 81.852 58.8375L85.5627 60.331C85.3599 60.8349 84.9023 61.0691 84.502 61.0691V57.0691ZM81.8531 58.8347C81.6918 59.2338 81.6235 59.1648 81.8252 59.0313C81.9274 58.9637 82.052 58.9118 82.1857 58.8831C82.3121 58.856 82.4154 58.8585 82.3874 58.8585V62.8585C82.6237 62.8585 83.3018 62.8506 84.0324 62.3672C84.7157 61.9151 85.2078 61.2089 85.5616 60.3337L81.8531 58.8347ZM82.3874 58.8585C80.9296 58.8585 79.5375 59.9998 79.5375 61.6585H83.5375C83.5375 62.434 82.9068 62.8585 82.3874 62.8585V58.8585ZM79.5375 61.6585C79.5375 63.3169 80.9295 64.4584 82.3874 64.4584V60.4584C82.907 60.4584 83.5375 60.8831 83.5375 61.6585H79.5375ZM82.3874 64.4584C83.464 64.4584 84.8567 64.1033 85.9985 62.814L83.0039 60.1621C82.8692 60.3142 82.7571 60.3761 82.6799 60.407C82.5941 60.4414 82.4969 60.4584 82.3874 60.4584V64.4584ZM83.004 62.8141C84.1458 64.1034 85.5387 64.4584 86.6158 64.4584V60.4584C86.5057 60.4584 86.4083 60.4413 86.3224 60.4069C86.2453 60.376 86.1332 60.3142 85.9984 60.1621L83.004 62.8141ZM86.6158 64.4584C88.0757 64.4584 89.4658 63.316 89.4658 61.6585H85.4658C85.4658 60.8842 86.096 60.4584 86.6158 60.4584V64.4584ZM89.4658 61.6585C89.4658 60.0008 88.0756 58.8585 86.6158 58.8585V62.8585C86.0961 62.8585 85.4658 62.4329 85.4658 61.6585H89.4658Z" fill="#199A8E" mask="url(#path-5-inside-2_14_2645)"/>
<mask id="path-7-inside-3_14_2645" fill="white">
<path d="M84.5004 51.0066C84.0312 51.0066 83.6504 51.3649 83.6504 51.8065V60.0179C83.6504 60.4595 84.0311 60.8179 84.5004 60.8179C84.9695 60.8179 85.3503 60.4595 85.3503 60.0179V51.8065C85.3503 51.3649 84.9695 51.0066 84.5004 51.0066Z"/>
</mask>
<path d="M84.5004 51.0066C84.0312 51.0066 83.6504 51.3649 83.6504 51.8065V60.0179C83.6504 60.4595 84.0311 60.8179 84.5004 60.8179C84.9695 60.8179 85.3503 60.4595 85.3503 60.0179V51.8065C85.3503 51.3649 84.9695 51.0066 84.5004 51.0066Z" fill="#199A8E"/>
<path d="M84.5004 49.0066C83.0427 49.0066 81.6504 50.1477 81.6504 51.8065H85.6504C85.6504 52.5822 85.0196 53.0066 84.5004 53.0066V49.0066ZM81.6504 51.8065V60.0179H85.6504V51.8065H81.6504ZM81.6504 60.0179C81.6504 61.6765 83.0425 62.8179 84.5004 62.8179V58.8179C85.0198 58.8179 85.6504 59.2425 85.6504 60.0179H81.6504ZM84.5004 62.8179C85.9582 62.8179 87.3503 61.6765 87.3503 60.0179H83.3503C83.3503 59.2425 83.9808 58.8179 84.5004 58.8179V62.8179ZM87.3503 60.0179V51.8065H83.3503V60.0179H87.3503ZM87.3503 51.8065C87.3503 50.1479 85.9581 49.0066 84.5004 49.0066V53.0066C83.9809 53.0066 83.3503 52.582 83.3503 51.8065H87.3503Z" fill="#199A8E" mask="url(#path-7-inside-3_14_2645)"/>
</g>
<defs>
<filter id="filter0_d_14_2645" x="0" y="0" width="169" height="160" filterUnits="userSpaceOnUse" color-interpolation-filters="sRGB">
<feFlood flood-opacity="0" result="BackgroundImageFix"/>
<feColorMatrix in="SourceAlpha" type="matrix" values="0 0 0 0 0 0 0 0 0 0 0 0 0 0 0 0 0 0 127 0" result="hardAlpha"/>
<feMorphology radius="11" operator="erode" in="SourceAlpha" result="effect1_dropShadow_14_2645"/>
<feOffset dy="17"/>
<feGaussianBlur stdDeviation="35"/>
<feColorMatrix type="matrix" values="0 0 0 0 0 0 0 0 0 0 0 0 0 0 0 0 0 0 0.1 0"/>
<feBlend mode="normal" in2="BackgroundImageFix" result="effect1_dropShadow_14_2645"/>
<feBlend mode="normal" in="SourceGraphic" in2="effect1_dropShadow_14_2645" result="shape"/>
</filter>
<clipPath id="clip0_14_2645">
<rect width="25.5" height="24" fill="white" transform="translate(71.75 51)"/>
</clipPath>
</defs>
</svg>
