<svg width="26" height="24" viewBox="0 0 26 24" fill="none" xmlns="http://www.w3.org/2000/svg">
<g clip-path="url(#clip0_14_2620)">
<path d="M25.2847 5.12364L20.0419 0.179657C19.7548 -0.0911356 19.289 -0.0911356 19.0017 0.179657C18.7143 0.450633 18.7143 0.889845 19.0017 1.16064L19.7921 1.90623L15.3714 6.07508L12.8333 3.68161C12.5461 3.41082 12.0804 3.41082 11.793 3.68161C11.5057 3.95259 11.5057 4.3918 11.793 4.66259L13.0204 5.82007L5.83221 12.5989C5.41529 12.9919 5.18572 13.5145 5.18572 14.0703C5.18572 14.3034 5.22658 14.5304 5.3042 14.7447L3.74858 16.2115C3.07953 16.8426 3.07953 17.8694 3.74858 18.5005L4.28262 19.004L0.215367 22.8395C-0.0717888 23.1102 -0.0717888 23.5495 0.215367 23.8204C0.359139 23.9558 0.547268 24.0235 0.735592 24.0235C0.923722 24.0235 1.11205 23.9558 1.25562 23.8203L5.32288 19.9849L5.85672 20.4884C6.19135 20.8039 6.63084 20.9617 7.07033 20.9617C7.51001 20.9617 7.9495 20.8039 8.28412 20.4884L9.83955 19.0216C10.0668 19.0946 10.3074 19.1331 10.5547 19.1331C11.144 19.1331 11.6983 18.9166 12.115 18.5237L19.3032 11.745L20.5306 12.9025C20.6744 13.0379 20.8625 13.1058 21.0509 13.1058C21.239 13.1058 21.4273 13.0381 21.5709 12.9025C21.8582 12.6315 21.8582 12.1925 21.5709 11.9215L19.0328 9.52805L23.4537 5.35921L24.2442 6.10462C24.3878 6.24002 24.5761 6.3079 24.7642 6.3079C24.9526 6.3079 25.1409 6.2402 25.2845 6.10462C25.5718 5.83364 25.5718 5.39462 25.2847 5.12364ZM7.24386 19.5074C7.18141 19.5663 7.10846 19.5751 7.07052 19.5751C7.03258 19.5751 6.95963 19.5663 6.89718 19.5074L4.78904 17.5196C4.69332 17.4293 4.69332 17.2827 4.78904 17.1924L6.18571 15.8754L8.64054 18.1903L7.24386 19.5074ZM11.0747 17.5427C10.788 17.8131 10.3216 17.8133 10.0347 17.5429L6.87247 14.5608C6.73337 14.4298 6.65691 14.2555 6.65691 14.0703C6.65691 13.885 6.73337 13.7108 6.87247 13.5799L8.81797 11.745L10.0454 12.9025C10.189 13.0379 10.3773 13.1058 10.5656 13.1058C10.7537 13.1058 10.9421 13.0379 11.0856 12.9025C11.3728 12.6317 11.3728 12.1925 11.0856 11.9215L9.85822 10.7641L11.4393 9.27304L12.6667 10.4305C12.8103 10.5659 12.9986 10.6338 13.1868 10.6338C13.3751 10.6338 13.5634 10.5661 13.707 10.4305C13.9942 10.1597 13.9942 9.72051 13.707 9.44953L12.4796 8.29206L14.0605 6.80105L18.263 10.7641L11.0747 17.5427ZM17.9927 8.54707L16.4116 7.05606L20.8324 2.88722L22.4135 4.37823L17.9927 8.54707Z" fill="#199A8E"/>
</g>
<defs>
<clipPath id="clip0_14_2620">
<rect width="25.5" height="24" fill="white"/>
</clipPath>
</defs>
</svg>
