<svg width="30" height="31" viewBox="0 0 30 31" fill="none" xmlns="http://www.w3.org/2000/svg">
<g clip-path="url(#clip0_12_265)">
<path d="M7.92706 5.8363H6.70889C6.06274 5.8363 5.44304 6.09299 4.98614 6.54989C4.52924 7.00679 4.27255 7.62649 4.27255 8.27264V12.5362C4.27255 14.3132 4.97844 16.0173 6.23492 17.2738C7.4914 18.5303 9.19556 19.2362 10.9725 19.2362C12.7494 19.2362 14.4536 18.5303 15.7101 17.2738C16.9665 16.0173 17.6724 14.3132 17.6724 12.5362V8.27264C17.6724 7.62649 17.4157 7.00679 16.9588 6.54989C16.5019 6.09299 15.8822 5.8363 15.2361 5.8363H14.0179" stroke="#199A8E" stroke-width="2" stroke-linecap="round" stroke-linejoin="round"/>
<path d="M10.3634 19.2362C10.3634 20.196 10.5525 21.1464 10.9198 22.0332C11.2871 22.92 11.8255 23.7257 12.5042 24.4044C13.1829 25.0831 13.9886 25.6215 14.8754 25.9888C15.7622 26.3561 16.7126 26.5452 17.6724 26.5452C18.6323 26.5452 19.5827 26.3561 20.4695 25.9888C21.3562 25.6215 22.162 25.0831 22.8407 24.4044C23.5194 23.7257 24.0578 22.92 24.4251 22.0332C24.7924 21.1464 24.9814 20.196 24.9814 19.2362V15.5817" stroke="#199A8E" stroke-width="2" stroke-linecap="round" stroke-linejoin="round"/>
<path d="M14.0179 4.61816V7.0545" stroke="#199A8E" stroke-width="2" stroke-linecap="round" stroke-linejoin="round"/>
<path d="M7.92706 4.61816V7.0545" stroke="#199A8E" stroke-width="2" stroke-linecap="round" stroke-linejoin="round"/>
<path d="M24.9815 15.5817C26.327 15.5817 27.4178 14.4909 27.4178 13.1453C27.4178 11.7998 26.327 10.709 24.9815 10.709C23.6359 10.709 22.5451 11.7998 22.5451 13.1453C22.5451 14.4909 23.6359 15.5817 24.9815 15.5817Z" stroke="#199A8E" stroke-width="2" stroke-linecap="round" stroke-linejoin="round"/>
</g>
<defs>
<clipPath id="clip0_12_265">
<rect width="29.2361" height="29.2361" fill="white" transform="translate(0.618042 0.963623)"/>
</clipPath>
</defs>
</svg>
