<?xml version="1.0" encoding="UTF-8"?>
<!DOCTYPE svg PUBLIC "-//W3C//DTD SVG 1.1//EN" "http://www.w3.org/Graphics/SVG/1.1/DTD/svg11.dtd">
<svg xmlns="http://www.w3.org/2000/svg" version="1.1" width="49px" height="49px" style="shape-rendering:geometricPrecision; text-rendering:geometricPrecision; image-rendering:optimizeQuality; fill-rule:evenodd; clip-rule:evenodd" xmlns:xlink="http://www.w3.org/1999/xlink">
<g><path style="opacity:0.016" fill="#000000" d="M 39.5,2.5 C 40.8333,3.16667 40.8333,3.16667 39.5,2.5 Z"/></g>
<g><path style="opacity:0.049" fill="#0a1010" d="M 21.5,11.5 C 21.5852,10.0047 20.9185,9.00475 19.5,8.5C 16.557,9.24354 13.557,9.74354 10.5,10C 8.94936,13.36 8.44936,13.1934 9,9.5C 9.69794,8.30943 10.5313,7.30943 11.5,6.5C 14.463,5.25884 17.463,5.25884 20.5,6.5C 23.144,7.74099 23.9774,9.74099 23,12.5C 22.6174,11.944 22.1174,11.6107 21.5,11.5 Z"/></g>
<g><path style="opacity:0.027" fill="#161818" d="M 8.5,6.5 C 5.24283,12.7915 6.24283,18.2915 11.5,23C 9.18291,25.1569 6.51624,26.6569 3.5,27.5C 3.9528,26.5416 4.61947,25.7083 5.5,25C 3.52226,21.0669 3.02226,16.9002 4,12.5C 4.8893,9.90503 6.3893,7.90503 8.5,6.5 Z"/></g>
<g><path style="opacity:0.06" fill="#050908" d="M 20.5,12.5 C 21.3065,13.7281 22.3065,14.7281 23.5,15.5C 20.8276,23.0941 16.3276,24.4274 10,19.5C 9.72654,17.6711 8.89321,16.1711 7.5,15C 8.44802,14.5172 9.44802,14.3505 10.5,14.5C 10.5726,11.0504 12.4059,9.71704 16,10.5C 17.9855,10.5687 19.4855,11.2353 20.5,12.5 Z"/></g>
<g><path style="opacity:0.976" fill="#1fc1b2" d="M 17.5,14.5 C 19.3547,14.272 20.1881,14.9387 20,16.5C 19.3333,15.1667 18.6667,15.1667 18,16.5C 17.5357,15.9056 17.369,15.2389 17.5,14.5 Z"/></g>
<g><path style="opacity:1" fill="#199d91" d="M 11.5,14.5 C 12.675,14.281 13.675,14.6143 14.5,15.5C 13.277,16.6139 11.9437,16.7805 10.5,16C 11.056,15.6174 11.3893,15.1174 11.5,14.5 Z"/></g>
<g><path style="opacity:0.109" fill="#07100e" d="M 24.5,16.5 C 25.1679,19.2448 26.5012,21.7448 28.5,24C 27.5,24.6667 26.5,24.6667 25.5,24C 24.9011,22.3775 24.2344,20.8775 23.5,19.5C 23.5569,18.391 23.8902,17.391 24.5,16.5 Z"/></g>
<g><path style="opacity:0.093" fill="#06100e" d="M 23.5,19.5 C 23.3253,21.6208 23.6586,23.6208 24.5,25.5C 19.6759,24.4184 19.3426,22.4184 23.5,19.5 Z"/></g>
<g><path style="opacity:1" fill="#1c8f84" d="M 39.5,3.5 C 39.5,3.83333 39.5,4.16667 39.5,4.5C 40.7901,8.75341 41.7901,13.0867 42.5,17.5C 42.6144,20.3775 41.9477,23.0442 40.5,25.5C 44.4825,28.3919 45.4825,32.0586 43.5,36.5C 43.5,36.1667 43.5,35.8333 43.5,35.5C 44.5817,30.9073 42.915,27.9073 38.5,26.5C 36.9819,28.6208 35.9819,30.9541 35.5,33.5C 35.1667,33.5 34.8333,33.5 34.5,33.5C 34.38,32.4138 33.7133,31.7472 32.5,31.5C 31.5836,31.5427 30.9169,31.8761 30.5,32.5C 29.7321,33.2625 29.2321,34.2625 29,35.5C 28.0656,34.1416 27.2323,32.8083 26.5,31.5C 26.5,31.1667 26.5,30.8333 26.5,30.5C 27.148,29.0206 27.4814,27.5206 27.5,26C 26.2312,26.1085 25.2312,25.9418 24.5,25.5C 23.6586,23.6208 23.3253,21.6208 23.5,19.5C 24.2344,20.8775 24.9011,22.3775 25.5,24C 26.5,24.6667 27.5,24.6667 28.5,24C 26.5012,21.7448 25.1679,19.2448 24.5,16.5C 24.5,15.8333 24.1667,15.5 23.5,15.5C 22.3065,14.7281 21.3065,13.7281 20.5,12.5C 21.1667,12.5 21.5,12.1667 21.5,11.5C 22.1174,11.6107 22.6174,11.944 23,12.5C 23.9774,9.74099 23.144,7.74099 20.5,6.5C 17.463,5.25884 14.463,5.25884 11.5,6.5C 10.5,6.5 9.5,6.5 8.5,6.5C 9.72977,5.39428 10.8964,4.39428 12,3.5C 14.9685,3.5194 18.1352,3.68606 21.5,4C 22.3523,5.72835 23.3523,5.89502 24.5,4.5C 24.369,3.76109 24.5357,3.09442 25,2.5C 29.7367,3.46918 34.57,3.80251 39.5,3.5 Z"/></g>
<g><path style="opacity:0.076" fill="#060d0c" d="M 32.5,12.5 C 34.0532,14.385 36.0532,15.385 38.5,15.5C 37.986,22.8388 34.486,24.8388 28,21.5C 26.872,19.6547 26.372,17.6547 26.5,15.5C 28.9699,15.3465 30.9699,14.3465 32.5,12.5 Z"/></g>
<g><path style="opacity:0.922" fill="#1bab9d" d="M 30.5,19.5 C 31.9755,20.262 33.3088,20.5953 34.5,20.5C 33.8333,20.8333 33.1667,21.1667 32.5,21.5C 31.2867,21.2528 30.62,20.5862 30.5,19.5 Z"/></g>
<g><path style="opacity:0.949" fill="#1aa699" d="M 33.5,16.5 C 35.3547,16.272 36.1881,16.9387 36,18.5C 35.3333,17.1667 34.6667,17.1667 34,18.5C 33.5357,17.9056 33.369,17.2389 33.5,16.5 Z"/></g>
<g><path style="opacity:0.949" fill="#1aa598" d="M 28.5,16.5 C 30.3547,16.272 31.1881,16.9387 31,18.5C 30.3333,17.1667 29.6667,17.1667 29,18.5C 28.5357,17.9056 28.369,17.2389 28.5,16.5 Z"/></g>
<g><path style="opacity:0.077" fill="#080c0c" d="M 24.5,4.5 C 25.2674,5.17197 25.9341,6.0053 26.5,7C 25.1667,8 25.1667,9 26.5,10C 30.7244,9.61697 34.8911,9.4503 39,9.5C 40.5452,14.0466 40.8785,18.7133 40,23.5C 37.3095,24.4589 36.9762,23.7922 39,21.5C 39.4974,18.854 39.6641,16.1873 39.5,13.5C 36.5794,13.8541 34.2461,12.8541 32.5,10.5C 30.422,12.9864 27.7553,13.9864 24.5,13.5C 24.108,10.3243 24.108,7.32425 24.5,4.5 Z"/></g>
<g><path style="opacity:0.055" fill="#0d1817" d="M 27.5,4.5 C 31.1817,4.3347 34.8484,4.50137 38.5,5C 37.7734,6.39881 37.2734,7.89881 37,9.5C 35.9326,8.80945 34.7659,8.30945 33.5,8C 34.6039,6.86872 34.2705,6.03539 32.5,5.5C 30.7295,6.03539 30.3961,6.86872 31.5,8C 30.2068,8.49001 28.8734,8.65668 27.5,8.5C 27.5,7.16667 27.5,5.83333 27.5,4.5 Z"/></g>
<g><path style="opacity:0.963" fill="#1e9e91" d="M 8.5,6.5 C 9.5,6.5 10.5,6.5 11.5,6.5C 10.5313,7.30943 9.69794,8.30943 9,9.5C 8.44936,13.1934 8.94936,13.36 10.5,10C 13.557,9.74354 16.557,9.24354 19.5,8.5C 20.9185,9.00475 21.5852,10.0047 21.5,11.5C 21.5,12.1667 21.1667,12.5 20.5,12.5C 19.4855,11.2353 17.9855,10.5687 16,10.5C 12.4059,9.71704 10.5726,11.0504 10.5,14.5C 9.44802,14.3505 8.44802,14.5172 7.5,15C 8.89321,16.1711 9.72654,17.6711 10,19.5C 16.3276,24.4274 20.8276,23.0941 23.5,15.5C 24.1667,15.5 24.5,15.8333 24.5,16.5C 23.8902,17.391 23.5569,18.391 23.5,19.5C 19.3426,22.4184 19.6759,24.4184 24.5,25.5C 25.2312,25.9418 26.2312,26.1085 27.5,26C 27.4814,27.5206 27.148,29.0206 26.5,30.5C 26.2381,28.4362 25.0714,27.1029 23,26.5C 24.0943,28.5938 24.4277,30.9271 24,33.5C 22.6667,28.1667 21.3333,28.1667 20,33.5C 19.3179,31.0617 19.8179,28.8951 21.5,27C 21.1667,26.5 20.8333,26 20.5,25.5C 18.8333,26.8333 17.1667,28.1667 15.5,29.5C 13.8513,28.3523 12.3513,27.019 11,25.5C 10.8446,27.856 10.8446,30.1893 11,32.5C 10,33.8333 9,33.8333 8,32.5C 8.04638,30.6874 7.87971,29.0207 7.5,27.5C 4.82801,29.4255 3.82801,32.0921 4.5,35.5C 11.8333,35.5 19.1667,35.5 26.5,35.5C 26.5,34.1667 26.5,32.8333 26.5,31.5C 27.2323,32.8083 28.0656,34.1416 29,35.5C 29.2321,34.2625 29.7321,33.2625 30.5,32.5C 30.5,33.5 30.5,34.5 30.5,35.5C 32.4832,35.8432 33.8166,35.1765 34.5,33.5C 34.8333,33.5 35.1667,33.5 35.5,33.5C 37.6353,35.369 40.3019,36.0356 43.5,35.5C 43.5,35.8333 43.5,36.1667 43.5,36.5C 41.8333,36.5 40.1667,36.5 38.5,36.5C 32.1667,36.5 25.8333,36.5 19.5,36.5C 14.1667,36.5 8.83333,36.5 3.5,36.5C 4.01017,33.6122 3.34351,31.2789 1.5,29.5C 2.16667,28.8333 2.83333,28.1667 3.5,27.5C 6.51624,26.6569 9.18291,25.1569 11.5,23C 6.24283,18.2915 5.24283,12.7915 8.5,6.5 Z"/></g>
<g><path style="opacity:0.808" fill="#16867a" d="M 13.5,18.5 C 15.2051,19.0881 16.8717,19.4214 18.5,19.5C 16.0387,22.4227 14.3721,22.0894 13.5,18.5 Z"/></g>
<g><path style="opacity:0.089" fill="#020404" d="M 12.5,23.5 C 14.4144,24.1847 16.4144,24.6847 18.5,25C 15.6255,28.4047 13.6255,27.9047 12.5,23.5 Z"/></g>
<g><path style="opacity:0.092" fill="#020404" d="M 29.5,24.5 C 31.3388,25.7525 33.1722,25.7525 35,24.5C 35.4935,26.1341 35.6602,27.8008 35.5,29.5C 33.5,29.5 31.5,29.5 29.5,29.5C 29.5,27.8333 29.5,26.1667 29.5,24.5 Z"/></g>
<g><path style="opacity:0.083" fill="#070f0d" d="M 26.5,30.5 C 26.5,30.8333 26.5,31.1667 26.5,31.5C 26.5,32.8333 26.5,34.1667 26.5,35.5C 19.1667,35.5 11.8333,35.5 4.5,35.5C 3.82801,32.0921 4.82801,29.4255 7.5,27.5C 7.87971,29.0207 8.04638,30.6874 8,32.5C 9,33.8333 10,33.8333 11,32.5C 10.8446,30.1893 10.8446,27.856 11,25.5C 12.3513,27.019 13.8513,28.3523 15.5,29.5C 17.1667,28.1667 18.8333,26.8333 20.5,25.5C 20.8333,26 21.1667,26.5 21.5,27C 19.8179,28.8951 19.3179,31.0617 20,33.5C 21.3333,28.1667 22.6667,28.1667 24,33.5C 24.4277,30.9271 24.0943,28.5938 23,26.5C 25.0714,27.1029 26.2381,28.4362 26.5,30.5 Z"/></g>
<g><path style="opacity:0.039" fill="#141414" d="M 1.5,29.5 C 3.34351,31.2789 4.01017,33.6122 3.5,36.5C 8.83333,36.5 14.1667,36.5 19.5,36.5C 21.1638,38.6791 20.8305,40.5125 18.5,42C 20.2983,43.5053 22.1316,43.6719 24,42.5C 24.4643,43.0944 24.631,43.7611 24.5,44.5C 17.8428,44.3345 11.3428,44.3345 5,44.5C 2.43997,44.0991 0.60664,42.7658 -0.5,40.5C -0.5,40.1667 -0.5,39.8333 -0.5,39.5C 0.833333,39.1667 0.833333,38.8333 -0.5,38.5C -0.5,38.1667 -0.5,37.8333 -0.5,37.5C 0.254922,34.9471 0.921588,32.2804 1.5,29.5 Z"/></g>
<g><path style="opacity:0.067" fill="#070f0e" d="M 43.5,35.5 C 40.3019,36.0356 37.6353,35.369 35.5,33.5C 35.9819,30.9541 36.9819,28.6208 38.5,26.5C 42.915,27.9073 44.5817,30.9073 43.5,35.5 Z"/></g>
<g><path style="opacity:0.036" fill="#1e1e1e" d="M 39.5,4.5 C 41.7761,4.75648 42.9428,6.08981 43,8.5C 45.3304,15.4779 46.3304,22.4779 46,29.5C 46.8518,30.5707 47.6851,31.5707 48.5,32.5C 48.5,34.5 48.5,36.5 48.5,38.5C 47.1667,38.8333 47.1667,39.1667 48.5,39.5C 48.5,40.1667 48.5,40.8333 48.5,41.5C 47.3172,42.5045 45.9839,43.3378 44.5,44C 40.1794,44.499 35.8461,44.6657 31.5,44.5C 33.1051,42.3904 34.9384,40.3904 37,38.5C 37.8261,40.4054 38.9928,40.7388 40.5,39.5C 39.8075,38.4822 39.1408,37.4822 38.5,36.5C 40.1667,36.5 41.8333,36.5 43.5,36.5C 45.4825,32.0586 44.4825,28.3919 40.5,25.5C 41.9477,23.0442 42.6144,20.3775 42.5,17.5C 41.7901,13.0867 40.7901,8.75341 39.5,4.5 Z"/></g>
<g><path style="opacity:0.068" fill="#050e0c" d="M 34.5,33.5 C 33.8166,35.1765 32.4832,35.8432 30.5,35.5C 30.5,34.5 30.5,33.5 30.5,32.5C 30.9169,31.8761 31.5836,31.5427 32.5,31.5C 33.7133,31.7472 34.38,32.4138 34.5,33.5 Z"/></g>
<g><path style="opacity:0.061" fill="#080808" d="M 19.5,36.5 C 25.8333,36.5 32.1667,36.5 38.5,36.5C 39.1408,37.4822 39.8075,38.4822 40.5,39.5C 38.9928,40.7388 37.8261,40.4054 37,38.5C 34.9384,40.3904 33.1051,42.3904 31.5,44.5C 29.1667,44.5 26.8333,44.5 24.5,44.5C 24.631,43.7611 24.4643,43.0944 24,42.5C 22.1316,43.6719 20.2983,43.5053 18.5,42C 20.8305,40.5125 21.1638,38.6791 19.5,36.5 Z"/></g>
</svg>
