<svg width="30" height="31" viewBox="0 0 30 31" fill="none" xmlns="http://www.w3.org/2000/svg">
<g clip-path="url(#clip0_12_276)">
<path d="M5.58553 16.1907L15.3309 6.4453C16.4617 5.31452 17.9953 4.67926 19.5945 4.67926C21.1937 4.67926 22.7273 5.31452 23.8581 6.4453C24.9889 7.57608 25.6241 9.10974 25.6241 10.7089C25.6241 12.3081 24.9889 13.8417 23.8581 14.9725L14.1127 24.7179C12.9819 25.8486 11.4483 26.4839 9.84913 26.4839C8.24997 26.4839 6.71631 25.8486 5.58553 24.7179C4.45476 23.5871 3.81949 22.0534 3.81949 20.4543C3.81949 18.8551 4.45476 17.3214 5.58553 16.1907" stroke="#199A8E" stroke-width="2" stroke-linecap="round" stroke-linejoin="round"/>
<path d="M10.4582 11.318L18.9854 19.8452" stroke="#199A8E" stroke-width="2" stroke-linecap="round" stroke-linejoin="round"/>
</g>
<defs>
<clipPath id="clip0_12_276">
<rect width="29.2361" height="29.2361" fill="white" transform="translate(0.103764 0.963562)"/>
</clipPath>
</defs>
</svg>
